<svg width="32" height="31" xmlns="http://www.w3.org/2000/svg" fill="none" viewBox="0 0 32 31"><path fill="#fff" d="M31.798 4.039a.923.923 0 0 0-.721-.347H6.509L5.822.715A.923.923 0 0 0 4.923 0h-4a.923.923 0 0 0 0 1.846H4.19l4.663 20.208c.097.419.47.715.9.715h18.494a.923.923 0 1 0 0-1.846h-17.76l-.71-3.077h18.532c.431 0 .806-.3.9-.72l2.77-12.308a.923.923 0 0 0-.18-.78zM27.569 16H9.35L6.937 5.538h22.987L27.57 16zM13.538 24a3.388 3.388 0 0 0-3.384 3.385 3.388 3.388 0 0 0 3.384 3.384 3.388 3.388 0 0 0 3.385-3.384A3.388 3.388 0 0 0 13.538 24zm0 4.923A1.54 1.54 0 0 1 12 27.385c0-.849.69-1.539 1.538-1.539.849 0 1.539.69 1.539 1.539a1.54 1.54 0 0 1-1.539 1.538zM24.615 24a3.388 3.388 0 0 0-3.384 3.385 3.388 3.388 0 0 0 3.384 3.384A3.388 3.388 0 0 0 28 27.385 3.388 3.388 0 0 0 24.615 24zm0 4.923a1.54 1.54 0 0 1-1.538-1.538c0-.849.69-1.539 1.538-1.539.849 0 1.539.69 1.539 1.539a1.54 1.54 0 0 1-1.539 1.538z"/></svg>